<?xml version="1.0" encoding="utf-8"?>
<!-- Generator: Adobe Illustrator 22.1.0, SVG Export Plug-In . SVG Version: 6.00 Build 0)  -->
<svg version="1.1" id="Layer_1" xmlns="http://www.w3.org/2000/svg" xmlns:xlink="http://www.w3.org/1999/xlink" x="0px" y="0px"
	 viewBox="0 0 285.2 148.6" style="enable-background:new 0 0 285.2 148.6;" xml:space="preserve">
<style type="text/css">
	.st0{fill:none;}
	.st1{fill:#62A420;}
	.st2{fill:#FCDB00;}
</style>
<g>
	<path class="st0" d="M276.3,15.2c2.3,0,4.1-1.8,4.1-4.1c0-2.3-1.7-4.1-4-4.1c-2.3,0-4.1,1.8-4.1,4.1
		C272.3,13.4,274,15.2,276.3,15.2z M274.5,8.6l2.2,0c1.2,0,1.9,0.6,1.9,1.6c0,0.8-0.4,1.3-1.1,1.5l1.2,1.8l-1.3,0l-1-1.6l-0.9,0
		l0,1.6l-1.1,0L274.5,8.6z"/>
	<path class="st0" d="M14.9,130.3l-1.9,0l0,2.6l1.9,0c1,0,1.6-0.5,1.6-1.3v0C16.5,130.7,15.9,130.3,14.9,130.3z"/>
	<path class="st0" d="M277.5,10.2c0-0.5-0.3-0.7-0.9-0.7l-1.1,0l0,1.4l1.1,0C277.2,11,277.5,10.7,277.5,10.2z"/>
	<path class="st0" d="M71.3,5.9L71.3,5.9c0-1.9-1.3-3-3.2-3l-1.3,0l0,5.9l1.3,0C70,8.8,71.3,7.8,71.3,5.9z"/>
	<path class="st0" d="M200.2,55.4c1-6.1-1.6-6.5-2.5-6.6c-0.3,0-0.6-0.1-1-0.1c-3.6,0-5.9,2.5-6.6,7.2l-2,12.1l10.1-0.1L200.2,55.4z
		"/>
	<path class="st0" d="M51.3,130.3l-1.9,0l0,2.6l1.9,0c1,0,1.6-0.5,1.6-1.3l0,0C52.9,130.7,52.3,130.3,51.3,130.3z"/>
	<path class="st0" d="M85.4,4.3L85.4,4.3c0-1-0.7-1.4-1.7-1.4l-2.1,0l0,2.8l2.1,0C84.7,5.7,85.4,5.1,85.4,4.3z"/>
	<path class="st0" d="M244.2,130.9c-1.2,0-3.9,2.6-6.1,6.3c-1.2,2-1.8,4.2-1.8,5.6c0,0.8,0.2,1.3,0.7,1.3c1.4,0,3.3-2.5,5.1-6.2
		C244.3,133.4,245,130.9,244.2,130.9z"/>
	<path class="st0" d="M191.8,133.8c-0.9,0.9-1.7,2.1-2.4,3.3c-1.1,1.9-1.7,4.3-1.6,5.9c0,1.2,0.4,1.9,1,1.8c1.1-0.1,2.9-1.6,4.3-4.5
		c0.6-1.2,1.1-2.4,1.4-3.3C193.4,136.3,192.2,135,191.8,133.8z"/>
	<path class="st0" d="M194.9,132.2c-0.3,0-0.6,0.4-0.6,1c0,0.8,0.3,1.9,0.7,2.4c0.4-1,0.5-2,0.5-2.6
		C195.5,132.5,195.2,132.2,194.9,132.2z"/>
	<path class="st0" d="M155.8,136.8c1.2-1.7,2-3.7,1.5-4.1c-0.6-0.5-3.7,2.2-5.6,6.3c0.3,0.2,0.6,0.3,0.9,0.3
		C153.6,139.3,155,138,155.8,136.8z"/>
	<path class="st0" d="M258.6,134.3c1.2-1.7,2-3.7,1.5-4.1c-0.6-0.5-3.7,2.2-5.6,6.3c0.3,0.2,0.6,0.3,0.9,0.3
		C256.4,136.8,257.7,135.5,258.6,134.3z"/>
	<path class="st0" d="M227.2,131.2c-0.8,0-3.7,2.8-5.8,6.3c-1.2,2-1.9,4.3-1.8,5.6c0,0.8,0.2,1.3,0.6,1.3c1.4,0,3.3-2.7,5.3-6.3
		c1.6-2.9,2.3-5,2.3-6.1C227.7,131.5,227.6,131.2,227.2,131.2z"/>
	<path class="st1" d="M230.5,85.4c-0.7,4.3-3,6.4-7,6.5c-0.4,0-0.8,0-1.2-0.1c-1-0.2-3.9-0.6-2.9-6.6l1-6.3l0.2-1.4l-1.4,0l-8.2,0.1
		l-1,0l-0.2,1l-0.8,4.9c-1.8,11,1.7,17.8,9.9,19.1c1.1,0.2,2.3,0.3,3.5,0.2c9.7-0.1,17.6-7.9,19.4-18.8c1.6-9.6-1-17.3-7.9-24
		c-6.1-6.3-7.9-10.2-7-15.6c0.6-3.5,3.1-5.8,6.4-5.9c0.4,0,0.9,0,1.2,0.1c3.1,0.5,3.3,3.1,3,5.2l-1.1,7l-0.2,1.4l1.4,0l8-0.1l1,0
		l0.2-1l0.9-5.4c1.8-11.2-1.4-17.5-9.4-18.8c-1.1-0.2-2.3-0.3-3.6-0.2c-9.6,0.1-17.3,7.7-19.1,18.8c-1.3,8.2,1.9,16.1,9.5,23.5
		C231.3,76.4,231.5,79.2,230.5,85.4z"/>
	<path class="st1" d="M178.1,56.9L172.2,93c-1.7,10.6,2.6,18.3,10.9,19.6c0.9,0.1,1.9,0.2,2.9,0.2c9.7-0.1,17-7.7,18.9-19.7l1.2-7.7
		l0.2-1.4l-1.4,0l-8.5,0.1l-1,0l-0.2,1l-1.4,8.9c-1.1,7-4.9,7.1-6.1,7.1c-0.4,0-0.9,0-1.2-0.1c-1.6-0.3-3.6-1.2-2.8-6.4l2.8-17.3
		l20-0.3l1,0l0.2-1l3.1-19.3c1.8-10.9-2.1-18.5-10.1-19.8c-0.9-0.1-1.8-0.2-2.8-0.2C188.1,37,180,45.2,178.1,56.9z M190,55.9
		c0.8-4.7,3-7.2,6.6-7.2c0.4,0,0.7,0,1,0.1c0.9,0.1,3.5,0.6,2.5,6.6l-2,12.5L188.1,68L190,55.9z"/>
	<path class="st1" d="M165.4,25.4l-0.2,1L153.7,98l-0.2,1.4l1.4,0l9.6-0.1l1,0l0.2-1l8.6-53c0.7-4.2,2.8-8,13.6-7.6l1,0l0.2-1
		l1.7-10.7l0.2-1.2l-1.3-0.1c-5.6-0.5-10.2,1.6-13.7,6l0.4-4.1l0.1-1.3l-1.3,0l-8.7,0.1L165.4,25.4z"/>
	<path class="st1" d="M275.6,11.9l0.9,0l1,1.6l1.3,0l-1.2-1.8c0.6-0.2,1.1-0.7,1.1-1.5c0-1-0.7-1.6-1.9-1.6l-2.2,0l0,4.9l1.1,0
		L275.6,11.9z M275.6,9.5l1.1,0c0.5,0,0.9,0.2,0.9,0.7c0,0.4-0.3,0.7-0.8,0.7l-1.1,0L275.6,9.5z"/>
	<path class="st1" d="M276.3,15.7c2.6,0,4.6-2.1,4.6-4.6c0-2.5-2-4.6-4.6-4.6c-2.6,0-4.6,2.1-4.6,4.6S273.8,15.7,276.3,15.7z
		 M276.4,7.1c2.3,0,4,1.8,4,4.1c0,2.3-1.8,4.1-4.1,4.1c-2.3,0-4-1.8-4-4.1C272.3,8.9,274.1,7,276.4,7.1z"/>
	<path class="st1" d="M277,34.8c-0.7-0.1-1.4-0.2-2.2-0.2c-4,0.1-7.7,2-10.6,5.3l5.4-33.5l0.2-1.4l-1.4,0l-9.6,0.1l-1,0l-0.2,1
		l-16.5,102l-0.2,1.4l1.4,0l9.6-0.1l1,0l0.2-1l8.8-54.4c0.5-3.3,3.4-8.1,7.3-8.2c0.3,0,0.5,0,0.8,0.1c2.6,0.4,3.1,3.2,2.7,5.7
		l-9.1,56.2l-0.2,1.4l1.4,0l9.8-0.1l1,0l0.2-1l9.3-57.6C286.3,41.9,283.3,35.9,277,34.8z"/>
	<path class="st1" d="M25.2,27.4c1.1-6.9,5.4-8.4,8.9-8.5c0.5,0,1,0,1.5,0.1c3.5,0.6,4.8,3.8,3.9,9.6l-1.8,11.2l-0.2,1.4l1.4,0
		L49.6,41l1,0l0.2-1l2-12.1c1.8-11.2-3.2-19.5-12.8-21.1c-1.2-0.2-2.5-0.3-3.8-0.3c-6.6,0.1-12.4,2.5-16.8,6.9
		c-4,4.1-6.7,9.8-7.8,16.6C9.3,43.4,17.2,58,22.1,65.5c6.6,10.3,8.7,18.2,7.2,27.4c-1,6.3-4.3,9.5-9.7,9.6c-0.5,0-0.9,0-1.4-0.1
		c-3.7-0.6-5.4-4.2-4.5-9.6l1.8-11.2l0.2-1.4l-1.4,0l-11,0.1l-1,0l-0.2,1L0.3,92.9c-0.9,5.4-0.1,10.2,2.3,13.9
		c2.4,3.7,6.3,6.2,11.3,7c1.4,0.2,2.8,0.3,4.4,0.3c5.5-0.1,10.9-2,15.1-5.5c5-4.1,8.4-10.3,9.6-18c1.8-10.8-1.2-21.5-9.5-34.5
		C26.3,44.5,23.5,38,25.2,27.4z"/>
	<polygon class="st1" points="153.4,68.5 154.3,68.5 154.5,67.6 156.1,57.6 156.3,56.2 155,56.2 139.8,56.4 145.1,23.7 165.2,23.4 
		166.2,23.4 166.4,22.5 168,12.3 168.2,11 166.8,11 136.8,11.2 135.8,11.2 135.6,12.2 119.1,114.2 118.9,115.5 120.3,115.6 
		129.2,115.6 130.2,115.6 130.4,114.7 137.8,68.7 	"/>
	<path class="st1" d="M78.6,100.4l0.2-1l11.6-71.7l0.2-1.4l-1.4,0l-9.8,0.1l-1,0l-0.2,1l-8.9,55.2c-0.5,3.3-3.3,7.9-7.1,8
		c-0.3,0-0.6,0-0.9-0.1c-3.2-0.5-3-4.1-2.8-5.6l9.2-57l0.2-1.4l-1.4,0l-9.6,0.1l-1,0l-0.2,1l-9.4,58.1c-1.5,9,1.6,15,8.1,16
		c0.7,0.1,1.5,0.2,2.3,0.2c2.7,0,7.3-1,11.1-5.9l-0.3,3.1l-0.1,1.3l1.3,0l8.7-0.1L78.6,100.4z"/>
	<path class="st1" d="M116.9,35.4c-0.7-0.1-1.5-0.2-2.3-0.2c-4.4,0.1-8.2,2.2-11.3,6.4l0.4-4.4l0.1-1.3l-1.3,0L94,36.2l-1,0l-0.2,1
		l-11.6,71.7l-0.2,1.4l1.4,0l9.6-0.1l1,0l0.2-1l8.8-54.4c0.5-3.3,3.4-8.1,7.3-8.2c0.3,0,0.6,0,0.8,0.1c2.3,0.4,3.3,2.5,2.8,5.7
		l-9.1,56.2l-0.2,1.4l1.4,0l9.6-0.1l1,0l0.2-1l9.3-57.6C126.4,42.4,123.4,36.5,116.9,35.4z"/>
	<path class="st2" d="M74.6,5.8L74.6,5.8C74.6,2.4,72.2,0,68,0l-4.5,0l0,11.7l4.4,0C72.1,11.7,74.6,9.2,74.6,5.8z M66.7,2.9l1.3,0
		c1.9,0,3.2,1.1,3.2,3v0c0,1.9-1.3,3-3.2,2.9l-1.3,0L66.7,2.9z"/>
	<path class="st2" d="M81.5,8.2l1.4,0h0l2.3,3.5l3.7,0l-2.8-4.1c1.5-0.6,2.4-1.8,2.4-3.6v0c0-1.2-0.3-2.1-1-2.7
		c-0.8-0.8-2-1.3-3.8-1.3l-5.5,0l0,11.7l3.2,0L81.5,8.2z M81.5,2.9l2.1,0c1.1,0,1.8,0.5,1.7,1.4v0c0,0.9-0.6,1.4-1.7,1.4l-2.1,0
		L81.5,2.9z"/>
	
		<rect x="88.1" y="4.3" transform="matrix(2.664356e-03 -1 1 2.664356e-03 87.7687 99.8535)" class="st2" width="11.7" height="3.3"/>
	<polygon class="st2" points="102.9,5.4 107.9,11.8 110.7,11.8 110.7,0.1 107.5,0.1 107.5,6.3 102.7,0.1 99.7,0.1 99.7,11.8 
		102.9,11.8 	"/>
	<polygon class="st2" points="118,8.8 119.2,7.5 122.2,11.8 126,11.9 121.5,5.2 125.9,0.2 122.1,0.2 118,4.9 118.1,0.1 114.8,0.1 
		114.8,11.8 118,11.8 	"/>
	<path class="st2" d="M19.5,131.4L19.5,131.4c0-1.1-0.3-1.9-0.9-2.5c-0.7-0.7-1.8-1.2-3.5-1.2l-5,0l0,10.7l2.9,0l0-3.2l1.3,0h0
		l2.1,3.2l3.4,0l-2.5-3.7C18.6,134.1,19.5,133,19.5,131.4z M16.5,131.6c0,0.8-0.6,1.3-1.6,1.3l-1.9,0l0-2.6l1.9,0
		C15.9,130.3,16.5,130.7,16.5,131.6L16.5,131.6z"/>
	<polygon class="st2" points="25.7,135.9 25.7,134.2 30.8,134.2 30.8,131.9 25.7,131.9 25.7,130.2 31.4,130.2 31.4,127.7 
		22.8,127.7 22.8,138.4 31.4,138.4 31.4,135.9 	"/>
	<polygon class="st2" points="43.3,127.7 34.8,127.7 34.8,138.4 37.7,138.4 37.7,134.6 42.8,134.6 42.8,132.1 37.7,132.1 
		37.7,130.3 43.3,130.3 	"/>
	<path class="st2" d="M55.9,131.4L55.9,131.4c0-1.1-0.3-1.9-0.9-2.5c-0.7-0.7-1.8-1.2-3.5-1.2l-5,0l0,10.7l3,0l0-3.2l1.3,0h0
		l2.1,3.2l3.4,0l-2.5-3.7C55,134.1,55.9,133,55.9,131.4z M51.4,132.8l-1.9,0l0-2.6l1.9,0c1,0,1.6,0.4,1.6,1.3l0,0
		C52.9,132.3,52.4,132.8,51.4,132.8z"/>
	<polygon class="st2" points="62.1,135.9 62.1,134.2 67.2,134.2 67.2,131.8 62.1,131.8 62.1,130.2 67.8,130.2 67.8,127.7 
		59.2,127.7 59.2,138.4 67.9,138.4 67.9,135.9 	"/>
	<path class="st2" d="M75.7,131.7c-1.5-0.3-1.8-0.5-1.8-1v0c0-0.4,0.3-0.7,1.1-0.7c0.9,0,2,0.4,3,1.1l1.5-2.1
		c-1.2-0.9-2.6-1.4-4.4-1.4c-2.6,0-4.1,1.4-4.1,3.4v0c0,2.2,1.8,2.8,4,3.3c1.4,0.3,1.8,0.6,1.8,1v0c0,0.5-0.4,0.7-1.2,0.7
		c-1.2,0-2.4-0.4-3.5-1.3l-1.6,2c1.3,1.2,3.1,1.8,5,1.8c2.6,0,4.3-1.3,4.3-3.5v0C79.7,133,78.2,132.3,75.7,131.7z"/>
	<polygon class="st2" points="89.7,127.7 89.7,131.7 85.9,131.7 85.9,127.7 82.9,127.7 82.9,138.4 85.9,138.4 85.9,134.3 
		89.7,134.3 89.7,138.4 92.6,138.4 92.6,127.7 	"/>
	
		<rect x="96.4" y="127.7" transform="matrix(1 -1.328187e-03 1.328187e-03 1 -0.1766 0.1301)" class="st2" width="3" height="10.7"/>
	<polygon class="st2" points="110.3,127.7 110.3,133.3 105.9,127.7 103.1,127.7 103.1,138.3 106.1,138.3 106,132.5 110.6,138.3 
		113.2,138.3 113.2,127.7 	"/>
	<path class="st2" d="M122.1,132.1l0,2.2l2.1,0l0,1.3c-0.4,0.3-1,0.4-1.7,0.4c-1.7,0-2.9-1.2-2.9-3l0,0c0-1.6,1.2-2.9,2.7-2.9
		c1,0,1.8,0.4,2.6,1l1.7-2.1c-1.1-1-2.5-1.6-4.3-1.5c-3.3,0-5.7,2.4-5.7,5.5l0,0c0,3.2,2.5,5.5,5.8,5.5c1.9,0,3.5-0.7,4.6-1.6l0-4.8
		L122.1,132.1z"/>
	<path class="st2" d="M142,143.6c-1.5,0.2-3.5,0.5-5.6,1.1c2.2-5,4.8-9.8,8.3-16.7c1-1.9,1.4-3.4,1.3-4.4c0-0.7-0.2-1.3-0.4-1.7
		c-0.4-0.8-1-1-1.6-0.1c-2.5,3.6-9.2,16.5-11.1,21.7c-0.4,1.2-0.4,1.8-0.1,2.6c0.2,0.5,0.8,1.2,1.2,1.8c0.6,0.8,1.2,0.8,2.4,0.5
		c2.4-0.7,6.9-1.9,8.9-1.9c1,0,1-0.5,0.8-1C145.6,144.3,144.3,143.4,142,143.6z"/>
	<path class="st2" d="M263.3,137.8c-1.7,2.7-4.4,5.9-7.6,6c-1.3,0-2.1-1.3-2.1-3.1c0-0.8,0.1-1.7,0.3-2.5c1,0.6,2,0.9,3,0.9
		c3.7-0.1,6.4-4.6,6.4-7.2c0-0.5-0.2-1.2-0.5-1.6c-0.6-0.8-1.5-1.5-2.7-2.1c-0.4-0.2-0.9-0.3-1.5-0.3c-2.5,0.1-5.8,2.4-7.9,6.9
		c-0.7,1.5-1.1,3-1.2,4.3c-1.3,2.6-3.1,5-4.5,5c-0.4,0-0.6-0.3-0.6-0.9c0-0.7,0.2-1.6,0.7-2.7c1.9-4.2,5.3-10.3,7.7-15
		c1-2,1.6-3.7,1.5-4.8c0-0.6-0.2-1.1-0.4-1.6c-0.4-1-1-1.1-1.8,0c-1.3,2-4,6.9-6,10.9c-0.4-1.1-1.3-1.7-2.8-1.6
		c-2.2,0.1-5.7,2.1-8.8,7c-1,1.5-1.6,3.1-1.9,4.6c-1.3,2.4-3,4.6-4.3,4.7c-0.4,0-0.6-0.4-0.6-1c-0.1-2.8,3.4-7.5,4.4-9.9
		c1-2.2,0.6-4.1-0.1-4.9c-0.5-0.6-1.2-0.5-1.7,0.3l-0.8,1.3c-0.4-1.1-1.4-1.8-2.9-1.8c-2.2,0.1-5.6,2.1-8.8,7.1
		c-0.8,1.2-1.4,2.4-1.7,3.6c-1.5,2.7-3.7,5.5-5,5.5c-0.6,0-0.9-0.5-1-1.4c0-0.7,0.2-1.5,0.6-2.5c0.4-0.9,1.4-2.8,2.1-4
		c0.6-1.1,1.2-2.2,1.6-3.1c0.3-0.6,0.3-1.2,0.3-1.7c0-1.6-1.3-3.1-2.4-3c-1.3,0-3.5,1.5-5.2,3.2c0-0.3,0-0.6,0-0.8
		c0-0.7-0.2-1.4-0.6-2.1c-0.5-0.6-1.1-0.6-1.6,0.1c-1.8,2.8-4.4,5.8-6.5,6.5c-0.1-2.7-0.6-3.5-1.5-4.3c-0.2-0.2-0.4-0.4-0.7-0.8
		c-0.8-1-1.9-1.6-3.2-1.4c-2.7,0.3-5.3,2.8-6.8,5.7c-0.8,1.4-1.3,2.9-1.5,4.3c-0.1,0.1-0.1,0.2-0.2,0.3c-1.5,2.6-3.5,5.6-4.8,5.7
		c-0.7,0-1.1-0.7-1.1-1.6c0-1.5,1-3.4,2.2-5.2c1.7-2.7,2.5-4.7,2.5-6.1c0-1.4-0.7-2.5-2-2.5c-1.4,0-3.6,1.5-5.4,3.2
		c0-1.8-1-3.3-2.3-3.3c-1.4,0-3.7,1.7-5.5,3.5c0.1-0.4,0.1-0.8,0.1-1.1c0-0.7-0.2-1.4-0.6-2c-0.4-0.8-1.1-0.8-1.6,0
		c-1.8,3-3.9,7-5.2,10c-1.7,2.7-4.4,5.8-7.6,5.9c-1.3,0-2.1-1.3-2.1-3.1c0-0.8,0.1-1.7,0.3-2.5c1,0.6,2,0.9,3,0.9
		c3.7-0.1,6.5-4.6,6.4-7.2c0-0.5-0.2-1.2-0.5-1.6c-0.6-0.8-1.5-1.5-2.7-2.1c-0.4-0.2-0.9-0.3-1.5-0.3c-2.5,0.1-5.8,2.4-7.9,6.9
		c-0.8,1.7-1.2,3.4-1.2,4.9c0.1,3.4,2.3,5.9,6.2,5.8c2.2-0.1,4.4-1,6.1-2.4c0.1,0.8,0.5,1.5,1,1.9c0.7,0.6,1.2,0.4,1.5-0.3
		c1.6-3.9,3.4-7.8,5.7-10.4c2.5-2.9,4.1-3.8,4.4-3.8c0.4,0-0.8,1.6-1.9,3.6c-1.1,1.8-2.4,4.1-3,5.7c-0.4,1.1-0.7,2.4-0.7,3.2
		c0,1.1,0.3,1.7,1,2.3c0.7,0.7,1.3,0.5,1.7-0.3c1.7-4,3.6-8.1,6.8-11.5c2.4-2.6,3.3-3,3.6-3c0.3,0-0.6,1.3-1.5,2.7
		c-0.9,1.6-2.3,3.9-2.9,5.3c-0.4,1.1-0.6,2-0.6,2.8c0.1,2.3,1.7,3.8,4.5,3.7c2.2-0.1,4.7-1.6,6.1-3.6c0.2,0.4,0.4,0.9,0.7,1.3
		c1.2,1.5,2.8,2,4.1,2c4.2-0.1,7.2-5.1,8.2-9.2c1.1,0,1.6,0,2.4-0.5c-0.8,1.8-1.6,3.6-1.9,4.7c-0.3,0.8-0.4,1.6-0.4,2.2
		c0,1,0.4,1.7,0.9,2.3c0.7,0.7,1.3,0.3,1.5-0.2c1.6-3.8,3.6-8.1,5.7-10.5c2.3-2.7,4.1-3.8,4.5-3.8c0.1,0-0.7,1.8-1,2.4
		c-0.9,1.7-2.3,4-3,6.1c-0.4,1.1-0.5,2-0.5,2.8c0.1,2.2,1.4,3.6,4.2,3.5c1.9,0,4-1.2,5.5-2.8c0.6,1.5,1.8,2.4,3.6,2.4
		c1.7,0,3.6-1.4,4.8-2.6c0.4,1.6,1.6,2.6,3.8,2.6c1.8,0,3.5-1.1,4.8-2.6c0.6,1.4,1.8,2.2,3.5,2.2c1.9,0,3.5-1.2,4.8-2.6
		c0.4,1.9,1.8,2.5,3.9,2.5c1.9,0,3.9-1.5,5.2-3.2c1,1.8,2.8,3,5.5,2.9c3.3-0.1,6.6-2.2,8.3-4.8c0.7-1.2,0.7-2.4,0.5-2.8
		C264.3,137,263.8,137.1,263.3,137.8z M260.1,130.2c0.5,0.4-0.4,2.4-1.5,4.1c-0.8,1.2-2.1,2.5-3.2,2.5c-0.3,0-0.6-0.1-0.9-0.3
		C256.4,132.4,259.5,129.7,260.1,130.2z M157.3,132.8c0.5,0.4-0.4,2.4-1.5,4.1c-0.8,1.2-2.1,2.5-3.2,2.5c-0.3,0-0.6-0.1-0.9-0.3
		C153.6,134.9,156.7,132.3,157.3,132.8z M193.1,140.4c-1.4,2.9-3.2,4.4-4.3,4.5c-0.6,0-1-0.6-1-1.8c0-1.6,0.6-4,1.6-5.9
		c0.7-1.2,1.5-2.4,2.4-3.3c0.4,1.2,1.5,2.5,2.7,3.2C194.2,137.9,193.7,139.2,193.1,140.4z M195,135.7c-0.5-0.5-0.7-1.6-0.7-2.4
		c0-0.7,0.4-1,0.6-1c0.3,0,0.6,0.2,0.7,0.9C195.6,133.6,195.4,134.7,195,135.7z M225.4,138.1c-2,3.6-3.9,6.2-5.3,6.3
		c-0.4,0-0.6-0.5-0.6-1.3c0-1.4,0.6-3.6,1.8-5.6c2.1-3.5,4.9-6.3,5.8-6.3c0.4,0,0.5,0.3,0.5,0.8C227.7,133.1,227,135.2,225.4,138.1z
		 M237,144c-0.5,0-0.6-0.5-0.7-1.3c0-1.4,0.6-3.5,1.8-5.6c2.2-3.6,4.9-6.3,6.1-6.3c0.8,0,0.1,2.5-2.1,6.9
		C240.3,141.5,238.4,143.9,237,144z"/>
</g>
</svg>
